<svg width="30" height="49" viewBox="0 0 30 49" fill="none" xmlns="http://www.w3.org/2000/svg">
<path d="M28.9453 24.992H26.7188V21.2054C26.7188 21.0045 26.6406 20.8118 26.5014 20.6698L20.7812 14.8333V9.84532C20.7792 9.37705 20.6358 8.92094 20.37 8.53924C20.1043 8.15753 19.7296 7.8688 19.2969 7.7126V3.78667C19.2956 2.78283 18.9042 1.82028 18.2088 1.11029C17.513 0.400634 16.5697 0.0013848 15.5859 0H14.1016C13.1178 0.0013524 12.1745 0.400643 11.4787 1.11029C10.7833 1.82029 10.392 2.78283 10.3906 3.78667V7.7126C9.95791 7.8688 9.58318 8.15753 9.31747 8.53924C9.05174 8.92096 8.90828 9.37705 8.90629 9.84532V14.8333L3.1861 20.6702C3.04695 20.8122 2.96875 21.0046 2.96875 21.2054V24.992H0.742188C0.332331 24.992 0 25.3312 0 25.7494C0 26.1676 0.332331 26.5067 0.742188 26.5067H2.96875V43.9254C2.97007 45.13 3.43957 46.2853 4.27423 47.1373C5.1092 47.9889 6.24133 48.468 7.42187 48.4694H22.2656C23.4462 48.468 24.5783 47.989 25.4132 47.1373C26.2479 46.2853 26.7174 45.13 26.7187 43.9254V26.5067H28.9453C29.3551 26.5067 29.6875 26.1676 29.6875 25.7494C29.6875 25.3312 29.3552 24.992 28.9453 24.992ZM14.1016 1.51469H15.586C16.1764 1.51469 16.743 1.75406 17.1604 2.18006C17.5778 2.60607 17.8125 3.18424 17.8125 3.78665V7.57332H11.875V3.78665C11.875 3.18417 12.1096 2.60599 12.527 2.18006C12.9445 1.75414 13.5112 1.51469 14.1016 1.51469ZM25.2344 43.9254C25.2344 44.7287 24.9216 45.4992 24.365 46.0676C23.808 46.6356 23.0529 46.9547 22.2656 46.9547H7.4219C6.63466 46.9547 5.87951 46.6356 5.32257 46.0676C4.76593 45.4992 4.45315 44.7287 4.45315 43.9254V21.5187L10.1733 15.6818C10.3125 15.5398 10.3907 15.3474 10.3907 15.1466V9.84522C10.3907 9.427 10.723 9.08789 11.1329 9.08789H18.5547C18.7516 9.08789 18.9404 9.16768 19.0796 9.30968C19.2187 9.45168 19.2969 9.6444 19.2969 9.84522V15.1466C19.2969 15.3474 19.3751 15.5401 19.5143 15.6821L25.2345 21.5187L25.2344 43.9254Z" fill="#7F3E41"/>
</svg>
