<svg width="42" height="48" viewBox="0 0 42 48" fill="none" xmlns="http://www.w3.org/2000/svg">
<path d="M40.8224 17.813H37.8539C37.5713 17.8114 37.3123 17.9707 37.186 18.2235L35.9112 20.7815H35.0488C35.4378 20.3551 35.6452 19.7936 35.6266 19.2164C35.6081 18.6396 35.3652 18.0926 34.9498 17.6917C34.534 17.2912 33.9784 17.0682 33.4013 17.0709H20.7854V2.22868C20.7881 1.5028 20.4359 0.821637 19.8425 0.40419C19.2489 -0.0132495 18.4885 -0.114295 17.8064 0.133519C17.1245 0.381333 16.6064 0.947194 16.4195 1.64819C12.6189 2.13254 9.11239 3.94703 6.52188 6.7701C3.93145 9.59343 2.42441 13.2427 2.26768 17.0706H2.23289C1.52755 17.0686 0.862997 17.4019 0.442921 17.9684C0.0228355 18.5349 -0.10306 19.2674 0.103671 19.942C0.310401 20.6162 0.825239 21.1523 1.49078 21.3861V28.2022C1.49277 29.973 2.19711 31.6707 3.4491 32.9229C4.70145 34.1749 6.39897 34.8792 8.16977 34.8812H11.5732L8.30793 38.1465C7.08442 37.2308 5.51938 36.9002 4.03015 37.2428C2.54068 37.5853 1.27773 38.5666 0.577348 39.925C-0.123017 41.2836 -0.189281 42.8814 0.395468 44.2935C0.980539 45.7054 2.15728 46.7882 3.61309 47.2533C5.06881 47.7187 6.65574 47.5193 7.95108 46.7083C9.24642 45.8976 10.1191 44.5572 10.3368 43.0445H25.2977C25.5147 44.5416 26.3735 45.8697 27.6496 46.6822C28.9257 47.4945 30.4925 47.7102 31.9409 47.2729C33.389 46.8356 34.5748 45.7886 35.1876 44.4054C35.8009 43.0226 35.781 41.441 35.1326 40.0741C34.4846 38.7075 33.2727 37.6907 31.8137 37.2905C30.355 36.89 28.7942 37.1454 27.5389 37.9899L24.4323 34.8813H27.4647C29.2355 34.8793 30.9331 34.175 32.1854 32.923C33.4374 31.6707 34.1417 29.9731 34.1437 28.2023V22.2655H36.37C36.651 22.2655 36.9077 22.1064 37.0336 21.855L38.3128 19.297H40.8227C41.2325 19.297 41.5648 18.9647 41.5648 18.5549C41.5648 18.1451 41.2322 17.813 40.8224 17.813ZM17.817 2.22872C17.817 1.81891 18.1493 1.48661 18.5591 1.48661C18.9689 1.48661 19.3012 1.81891 19.3012 2.22872V17.0709H17.817V2.22872ZM16.3327 3.14079V15.2792L12.0338 10.9802C11.7426 10.6989 11.2797 10.7029 10.9935 10.9891C10.7072 11.2754 10.7029 11.7382 10.9842 12.0294L16.0255 17.0705H3.73448C3.89119 13.6472 5.23363 10.3853 7.53214 7.84378C9.83098 5.30203 12.9424 3.63941 16.3327 3.14079ZM2.23265 18.5555H33.4013C33.8111 18.5555 34.1434 18.8878 34.1434 19.2976C34.1434 19.7074 33.8111 20.0397 33.4013 20.0397H2.23265C1.82284 20.0397 1.49054 19.7074 1.49054 19.2976C1.49054 18.8878 1.82284 18.5555 2.23265 18.5555ZM5.20109 46.0136C4.2171 46.0136 3.2733 45.6226 2.57716 44.9269C1.88144 44.2309 1.49054 43.287 1.49054 42.303C1.49054 41.319 1.88148 40.3752 2.57716 39.6791C3.27322 38.9834 4.2171 38.5925 5.20109 38.5925C6.18509 38.5925 7.12888 38.9834 7.82503 39.6791C8.52075 40.3751 8.91164 41.319 8.91164 42.303C8.91032 43.2867 8.51906 44.2299 7.82367 44.9256C7.12794 45.621 6.18475 46.0122 5.20109 46.0136ZM34.1434 42.303C34.1434 43.287 33.7525 44.2308 33.0568 44.9269C32.3607 45.6227 31.4168 46.0136 30.4328 46.0136C29.4488 46.0136 28.505 45.6226 27.8089 44.9269C27.1132 44.2309 26.7223 43.287 26.7223 42.303C26.7223 41.319 27.1132 40.3752 27.8089 39.6791C28.505 38.9834 29.4488 38.5925 30.4328 38.5925C31.4165 38.5938 32.3597 38.985 33.0554 39.6804C33.7508 40.3762 34.142 41.3194 34.1434 42.303ZM26.438 38.9864C25.8271 39.7226 25.4322 40.6138 25.2974 41.5609H10.3364C10.2132 40.7035 9.87624 39.8905 9.35674 39.1974L13.6712 34.8819H22.3332L26.438 38.9864ZM27.4644 33.3977H8.16953C6.79235 33.396 5.47173 32.8484 4.49808 31.8744C3.5241 30.9007 2.97646 29.5801 2.97476 28.2029V24.4924H11.138C11.5478 24.4924 11.8801 24.1601 11.8801 23.7503C11.8801 23.3404 11.5478 23.0081 11.138 23.0081H2.97476V21.5239H32.6592V27.4608H28.9486C28.5388 27.4608 28.2065 27.7931 28.2065 28.2029C28.2065 28.6127 28.5388 28.945 28.9486 28.945H32.5999C32.4216 30.1804 31.8044 31.3102 30.8616 32.1278C29.9184 32.9454 28.7124 33.3963 27.4644 33.3977Z" fill="#7F3E41"/>
</svg>
