<svg width="29" height="45" viewBox="0 0 29 45" fill="none" xmlns="http://www.w3.org/2000/svg">
<path d="M26.3136 0H16.8677C16.4951 0 16.193 0.311981 16.193 0.696741C16.193 1.44356 15.8071 2.13346 15.1809 2.50699C14.5547 2.88025 13.783 2.88025 13.1568 2.50699C12.5306 2.13343 12.1447 1.44357 12.1447 0.696741C12.1447 0.511981 12.0736 0.334682 11.9471 0.204045C11.8206 0.0734085 11.6489 0 11.47 0H2.02409C1.48734 0 0.972236 0.220218 0.592781 0.612136C0.213325 1.00406 0 1.53597 0 2.09018V5.57389C0 6.31292 0.284341 7.02183 0.790373 7.54467C1.29671 8.06722 1.98318 8.36085 2.69884 8.36085H4.24674C3.97294 9.30364 3.98257 10.3101 4.27505 11.2473C4.56723 12.1842 5.12804 13.0075 5.88348 13.6079C4.46659 14.8499 3.32745 16.3942 2.54456 18.1346C1.76174 19.8751 1.35414 21.77 1.34936 23.6892C1.34936 24.1073 1.37285 24.5253 1.4102 24.9337C1.41562 24.9888 1.41833 25.0438 1.42436 25.0983C1.46351 25.4802 1.52074 25.8585 1.59243 26.2333C1.6078 26.3145 1.62406 26.3953 1.64093 26.4759C1.71442 26.8243 1.79937 27.1726 1.90147 27.521C1.9325 27.6268 1.96895 27.73 2.00208 27.8352C2.0822 28.0837 2.16955 28.3303 2.26443 28.5751C2.33401 28.7549 2.4072 28.9322 2.48371 29.1067C2.55118 29.2669 2.62257 29.4271 2.69908 29.586L2.69878 41.1081C2.69998 42.0317 3.05571 42.9172 3.68794 43.5704C4.32048 44.2233 5.17801 44.5906 6.07233 44.5918H22.2654C23.1597 44.5906 24.0172 44.2232 24.6497 43.5704C25.282 42.9172 25.6377 42.0317 25.6389 41.1081V29.5836C26.529 27.755 26.9913 25.736 26.9883 23.6894C26.9871 21.6925 26.5479 19.722 25.7037 17.9257C24.8594 16.1294 23.632 14.554 22.1135 13.3176C23.0753 12.3997 23.6199 11.107 23.6148 9.75456C23.6142 9.28271 23.5473 8.81337 23.4163 8.36108H25.6389C26.3546 8.36108 27.041 8.06746 27.5473 7.5449C28.0534 7.02204 28.3377 6.31314 28.3377 5.57412V2.09042C28.3377 1.53614 28.1245 1.00422 27.7449 0.612371C27.3654 0.220524 26.8503 0 26.3136 0ZM14.1689 4.18044C14.9463 4.17951 15.6996 3.90175 16.302 3.39412C16.9041 2.8865 17.3183 2.1798 17.4749 1.39348H18.1563C18.1563 1.40966 18.1514 1.4249 18.1487 1.44014C18.1123 1.65009 18.0602 1.85663 17.9924 2.05818C17.9795 2.09426 17.9668 2.12786 17.9533 2.16674C17.8819 2.36519 17.7957 2.55741 17.6954 2.74155C17.6813 2.76799 17.665 2.79319 17.6502 2.819C17.543 3.00874 17.4213 3.18946 17.2867 3.3596L17.2746 3.37298C17.1385 3.54064 16.9897 3.69678 16.8291 3.83986C16.8111 3.85666 16.7948 3.87407 16.7764 3.88994C16.6186 4.02648 16.4514 4.14997 16.2752 4.25977C16.2454 4.27843 16.2165 4.2974 16.1861 4.31544C16.0099 4.42089 15.8261 4.51234 15.6364 4.58885L15.5358 4.62711C15.3382 4.70083 15.1351 4.75899 14.9285 4.80068C14.9014 4.80628 14.8746 4.80907 14.8475 4.81405C14.3984 4.89866 13.9381 4.89834 13.4887 4.81374C13.4616 4.80876 13.4348 4.80596 13.4077 4.80037C13.2011 4.759 12.9981 4.70083 12.8005 4.62649C12.7667 4.61467 12.733 4.60223 12.7005 4.58885C12.5101 4.51234 12.3261 4.4212 12.1496 4.31576L12.0619 4.2607C11.8857 4.14997 11.7173 4.02586 11.5592 3.88931C11.5417 3.87407 11.5261 3.85727 11.5092 3.84203C11.3471 3.6974 11.1965 3.53938 11.0586 3.37017L11.0504 3.36115C10.9146 3.18977 10.792 3.0075 10.6839 2.8162C10.6697 2.79194 10.655 2.76892 10.6414 2.74653C10.5402 2.56052 10.4534 2.36643 10.3818 2.16611C10.3688 2.1319 10.3568 2.09644 10.3447 2.06378C10.2763 1.85942 10.2233 1.64978 10.1869 1.43671C10.1869 1.42271 10.183 1.40747 10.1802 1.39347H10.8628C11.0194 2.1798 11.4336 2.88649 12.0357 3.39411C12.6381 3.90174 13.3914 4.17951 14.1689 4.18044ZM26.9883 5.57393C26.9883 5.94345 26.8462 6.29804 26.5931 6.55932C26.3401 6.82059 25.9967 6.96741 25.6389 6.96741H22.3943C22.1533 6.96772 21.9307 7.10054 21.8106 7.31609C21.6901 7.53164 21.6901 7.79697 21.8106 8.01252C22.2539 8.8007 22.3792 9.73725 22.1597 10.62C21.9398 11.5028 21.3928 12.261 20.6367 12.7308C20.4403 12.8536 20.3181 13.0714 20.312 13.3084C20.306 13.5454 20.4172 13.7693 20.6069 13.9028C23.7512 16.1022 25.6359 19.7675 25.6389 23.689C25.6413 25.5715 25.204 27.4268 24.3645 29.0978C24.3151 29.1964 24.2895 29.3059 24.2895 29.4169V41.1078C24.2895 41.6621 24.0763 42.194 23.6968 42.5859C23.3172 42.9777 22.8021 43.198 22.2655 43.198H6.07243C5.53568 43.198 5.02058 42.9778 4.64112 42.5859C4.26167 42.194 4.04834 41.662 4.04834 41.1078V31.785C5.24261 33.3838 6.77579 34.6787 8.53003 35.5701C10.2846 36.4619 12.2136 36.9259 14.169 36.9275C14.5416 36.9275 14.8437 36.6156 14.8437 36.2308C14.8437 35.846 14.5416 35.5341 14.169 35.5341C11.9418 35.5309 9.76378 34.8591 7.89989 33.6006C6.03599 32.3418 4.56667 30.5505 3.6712 28.4447C3.61306 28.3054 3.56186 28.171 3.50854 28.0329C3.43173 27.8335 3.35944 27.6317 3.29317 27.4261C3.26155 27.3312 3.2257 27.2366 3.19859 27.1405C3.10823 26.8354 3.03202 26.5225 2.96516 26.2077C2.94889 26.1284 2.93202 26.0487 2.91666 25.9694C2.85401 25.6385 2.80341 25.3035 2.76756 24.9641C2.76154 24.9063 2.75823 24.8478 2.7528 24.7899C2.72058 24.4273 2.69889 24.0609 2.69889 23.6895C2.70913 19.8925 4.47719 16.3298 7.45617 14.1039C7.64984 13.9593 7.75497 13.7195 7.73237 13.4738C7.70978 13.228 7.5628 13.0128 7.34622 12.9083C6.48807 12.4977 5.83688 11.7325 5.55281 10.8009C5.26847 9.86937 5.37721 8.8569 5.85251 8.01238C5.97299 7.79682 5.97299 7.5315 5.85251 7.31595C5.73233 7.10039 5.50973 6.96758 5.26877 6.96727H2.69886C2.34102 6.96727 1.99764 6.82045 1.74463 6.55917C1.49161 6.2979 1.34944 5.9433 1.34944 5.57378V2.09008C1.34944 1.70532 1.65155 1.39334 2.02415 1.39334H8.81311C8.82396 1.48168 8.84203 1.56752 8.85709 1.65461C8.86853 1.72429 8.87727 1.78992 8.89082 1.8568C8.91522 1.9753 8.94685 2.09163 8.97847 2.20517C8.99323 2.26022 9.00468 2.3159 9.02094 2.36878C9.07215 2.53643 9.13059 2.70097 9.19564 2.86209C9.19564 2.86831 9.20167 2.87391 9.20438 2.88013C9.26793 3.0341 9.33932 3.18464 9.41492 3.33084C9.44264 3.38372 9.47487 3.43473 9.50408 3.48636C9.5586 3.58403 9.61342 3.68138 9.67396 3.7747C9.71161 3.83318 9.75287 3.88823 9.79264 3.94546C9.85077 4.02851 9.908 4.11125 9.97005 4.19056C10.0152 4.24842 10.0637 4.30285 10.111 4.35853C10.1737 4.43225 10.2357 4.50566 10.302 4.57595C10.3532 4.63038 10.4071 4.68264 10.4604 4.7349C10.5279 4.80115 10.5954 4.86584 10.6668 4.92868C10.7234 4.97876 10.7815 5.02697 10.8402 5.07487C10.9131 5.13334 10.9866 5.19057 11.0622 5.24563C11.1237 5.29104 11.1857 5.33397 11.2484 5.37595C11.3267 5.42821 11.4056 5.47766 11.4866 5.52588C11.5541 5.56414 11.6168 5.60177 11.683 5.63817C11.7668 5.68358 11.8517 5.72464 11.9382 5.76508C12.0056 5.79712 12.0731 5.82915 12.1406 5.85777C12.2309 5.89603 12.3234 5.92745 12.4159 5.96228C12.4833 5.98655 12.5508 6.01174 12.6183 6.03196C12.7162 6.06275 12.8168 6.08701 12.918 6.11127C12.9855 6.12807 13.0529 6.14673 13.1204 6.16073C13.2331 6.18375 13.3484 6.19899 13.4632 6.21516C13.5213 6.22294 13.5785 6.23476 13.6373 6.24036C13.812 6.25778 13.9888 6.26835 14.1683 6.26835C14.3478 6.26835 14.5246 6.25778 14.6993 6.24036C14.7581 6.23476 14.8147 6.22294 14.8734 6.21516C14.9882 6.19899 15.1036 6.18375 15.2162 6.16073C15.2837 6.14673 15.3512 6.12807 15.4186 6.1119C15.5192 6.0867 15.621 6.06244 15.7183 6.03165C15.7858 6.01019 15.8533 5.98499 15.9207 5.96197C16.0132 5.92931 16.1057 5.89572 16.196 5.85746C16.2635 5.82885 16.331 5.79681 16.3985 5.7654C16.4849 5.72434 16.5705 5.68329 16.6548 5.63787C16.7223 5.60178 16.7849 5.56415 16.8497 5.52652C16.9307 5.47768 17.0108 5.4276 17.0891 5.37535C17.1518 5.33367 17.2132 5.29106 17.2735 5.24658C17.3503 5.19152 17.4241 5.13366 17.4976 5.07456C17.5557 5.02729 17.6129 4.97908 17.6696 4.92962C17.7409 4.86617 17.8093 4.80147 17.8774 4.7346C17.9307 4.68234 17.9834 4.63071 18.0346 4.57658C18.1021 4.50691 18.1641 4.43226 18.2277 4.35854C18.2744 4.30286 18.3223 4.24905 18.3675 4.19119C18.4289 4.11094 18.4867 4.0282 18.5455 3.94453C18.5852 3.88823 18.6259 3.83318 18.6635 3.77532C18.7244 3.68201 18.7789 3.58372 18.8343 3.48605C18.8632 3.4338 18.8952 3.38434 18.9226 3.33146C18.9976 3.18807 19.0669 3.04033 19.1289 2.88916C19.1328 2.87951 19.1383 2.87049 19.1425 2.86054C19.2099 2.70097 19.2654 2.53798 19.316 2.37282C19.334 2.31434 19.347 2.25369 19.3627 2.19459C19.3931 2.08448 19.4226 1.97437 19.4464 1.86084C19.4611 1.79117 19.4708 1.71465 19.4828 1.64217C19.4949 1.5697 19.5145 1.47856 19.5241 1.39489L26.3137 1.39396C26.4926 1.39396 26.6643 1.46737 26.7908 1.598C26.9173 1.72864 26.9884 1.90594 26.9884 2.0907L26.9883 5.57393Z" fill="#7F3E41"/>
</svg>
